# xmcd
#
# Track frame offsets:
#	150
#	22650
#	37725
#	71139
#	115446
#	145297
#	169597
#	195358
#	233352
#	267403
#	299196
#
# Disc length: 4429 seconds
#
# Revision: 1
# Processed by: cddbd v1.5.2PL0 Copyright (c) Steve Scherf et al.
# Submitted via: dBpowerAMP V4.0
#
DISCID=97114b0b
DTITLE=VENUS RECORDS  ARTISTS - VERY BEST PIANO TORIO BEST PERFORMANCES
DYEAR=2002
DGENRE=Jazz
TTITLE0=As Long As There's Music [J.Styne] Denny Zeitilin Trio
TTITLE1=Again [L.Newman] Eddie Higgins Trio
TTITLE2=Nardis [M.Davis] Richi Beirach Trio
TTITLE3=Tres Palabras(Without You) [O.Farres] Steve Kuhm Trio
TTITLE4=Time After Time [J.Styne] Bill Charlap Trio
TTITLE5=Ole Texas [Amerlcan Folk Song/Trad] Stanley Cowell Trio
TTITLE6=Recado Bossa Nove [D.Ferreira] Harold Mabern Trio
TTITLE7=Blues In The night [H.Arlen] New York Trio
TTITLE8=No Problem [D.Jordan] Steve Kuhn Trio
TTITLE9=Afternoon In Paris [J.Lewis] Sir Roland Hanna Trio
TTITLE10=Stolen Moments /Israel [O.Nelson/J.Carisl] Eddie Higgins Trio
EXTD=
EXTT0=
EXTT1=
EXTT2=
EXTT3=
EXTT4=
EXTT5=
EXTT6=
EXTT7=
EXTT8=
EXTT9=
EXTT10=
PLAYORDER=
